<?xml version="1.0" encoding="UTF-8" standalone="no"?>
<!DOCTYPE svg PUBLIC "-//W3C//DTD SVG 1.1//EN" "http://www.w3.org/Graphics/SVG/1.1/DTD/svg11.dtd">
<svg width="100%" height="100%" viewBox="0 0 512 512" version="1.1" xmlns="http://www.w3.org/2000/svg" xmlns:xlink="http://www.w3.org/1999/xlink" xml:space="preserve" xmlns:serif="http://www.serif.com/" style="fill-rule:evenodd;clip-rule:evenodd;">
    <g transform="matrix(1.703286,0,0,1.703286,-180.041203,-309.207539)">
        <g transform="matrix(0.515189,0,0,1,241.381189,155.963842)">
            <g transform="matrix(200,0,0,200,305.842106,151.696314)">
            </g>
            <text x="128.889px" y="151.696px" style="font-family:'ArialRoundedMTBold', 'Arial Rounded MT Bold', sans-serif;font-size:200px;">m</text>
        </g>
        <g transform="matrix(0.397269,0,0,0.397269,249.645097,205.509158)">
            <path d="M220.346,136.508L139.314,217.539C133.105,223.737 122.899,223.737 116.689,217.539L33.58,134.43C22.326,123.185 15.996,107.913 15.996,92.004C15.996,74.976 23.248,58.729 35.924,47.359C59.205,26.344 97.174,28.305 120.502,51.656L128.002,59.148L137.58,49.57C149.255,38.009 165.138,31.67 181.564,32.016C198.046,32.396 213.652,39.604 224.627,51.906C245.611,75.203 243.689,113.156 220.346,136.508Z" style="fill:rgb(255,0,0);fill-rule:nonzero;stroke:rgb(255,0,0);stroke-width:1px;"/>
        </g>
        <g transform="matrix(1.973295,0,0,1,-152.388352,156.159155)">
            <g transform="matrix(200,0,0,200,247.736638,151.696314)">
            </g>
            <text x="128.889px" y="151.696px" style="font-family:'ArialRoundedMTBold', 'Arial Rounded MT Bold', sans-serif;font-size:200px;fill:rgb(6,64,43);">e</text>
        </g>
    </g>
    <g transform="matrix(-1.703286,0,0,1.703286,692.041203,-95.924563)">
        <g transform="matrix(0.515189,0,0,1,241.381189,155.963842)">
            <g transform="matrix(200,0,0,200,305.842106,151.696314)">
            </g>
            <text x="128.889px" y="151.696px" style="font-family:'ArialRoundedMTBold', 'Arial Rounded MT Bold', sans-serif;font-size:200px;fill:rgb(6,64,43);">m</text>
        </g>
        <g transform="matrix(0.397269,0,0,0.397269,249.645097,205.509158)">
            <path d="M220.346,136.508L139.314,217.539C133.105,223.737 122.899,223.737 116.689,217.539L33.58,134.43C22.326,123.185 15.996,107.913 15.996,92.004C15.996,74.976 23.248,58.729 35.924,47.359C59.205,26.344 97.174,28.305 120.502,51.656L128.002,59.148L137.58,49.57C149.255,38.009 165.138,31.67 181.564,32.016C198.046,32.396 213.652,39.604 224.627,51.906C245.611,75.203 243.689,113.156 220.346,136.508Z" style="fill:rgb(255,0,0);fill-rule:nonzero;stroke:rgb(255,0,0);stroke-width:1px;"/>
        </g>
        <g transform="matrix(1.973295,0,0,1,-152.388352,156.159155)">
            <g transform="matrix(200,0,0,200,247.736638,151.696314)">
            </g>
            <text x="128.889px" y="151.696px" style="font-family:'ArialRoundedMTBold', 'Arial Rounded MT Bold', sans-serif;font-size:200px;">e</text>
        </g>
    </g>
    <g id="SVGRepo_iconCarrier">
    </g>
</svg>
